<svg xmlns="http://www.w3.org/2000/svg" viewBox="0 0 64 64" role="img" aria-label="SENIA favicon">
  <defs>
    <linearGradient id="bg" x1="0%" y1="0%" x2="100%" y2="100%">
      <stop offset="0%" stop-color="#0F3FA8" />
      <stop offset="100%" stop-color="#0B2A6A" />
    </linearGradient>
    <linearGradient id="pill" x1="0%" y1="0%" x2="100%" y2="100%">
      <stop offset="0%" stop-color="#22D3EE" />
      <stop offset="100%" stop-color="#60A5FA" />
    </linearGradient>
  </defs>

  <rect x="4" y="4" width="56" height="56" rx="14" fill="url(#bg)" />

  <path d="M32 15c1.66 0 3 1.34 3 3v8h8c1.66 0 3 1.34 3 3s-1.34 3-3 3h-8v8c0 1.66-1.34 3-3 3s-3-1.34-3-3v-8h-8c-1.66 0-3-1.34-3-3s1.34-3 3-3h8v-8c0-1.66 1.34-3 3-3z" fill="#ffffff"/>

  <g transform="translate(16 38) rotate(-22 16 8)">
    <rect x="2" y="2" width="28" height="12" rx="6" fill="url(#pill)" />
    <path d="M16 2h8.5a5.5 5.5 0 0 1 0 11H16z" fill="#ffffff" fill-opacity="0.88" />
    <path d="M16 2v12" stroke="#0B2A6A" stroke-opacity="0.25" />
  </g>
</svg>
